<mxfile host="app.diagrams.net" modified="2022-08-10T11:00:59.681Z" agent="5.0 (Windows NT 10.0; Win64; x64) AppleWebKit/537.36 (KHTML, like Gecko) Chrome/104.0.0.0 Safari/537.36" etag="-m4e3-I60Y_KkJ5ZiZ0M" version="20.2.3" type="github">
  <diagram id="GG7RsVFY-ZaRTAt75dBU" name="Page-1">
    <mxGraphModel dx="1497" dy="836" grid="0" gridSize="10" guides="1" tooltips="1" connect="1" arrows="1" fold="1" page="1" pageScale="1" pageWidth="827" pageHeight="1169" math="0" shadow="0">
      <root>
        <mxCell id="0" />
        <mxCell id="1" parent="0" />
        <mxCell id="DRZjtDO21QbI87yVFXPy-7" value=":TimeAndMaterial&lt;br&gt;Controler" style="shape=umlLifeline;perimeter=lifelinePerimeter;whiteSpace=wrap;html=1;container=1;collapsible=0;recursiveResize=0;outlineConnect=0;rounded=0;shadow=0;glass=0;sketch=0;fillColor=none;fontSize=15;fontColor=#CC6600;strokeColor=#CC6600;" vertex="1" parent="1">
          <mxGeometry x="408" y="68" width="130" height="500" as="geometry" />
        </mxCell>
        <mxCell id="DRZjtDO21QbI87yVFXPy-24" value="" style="html=1;points=[];perimeter=orthogonalPerimeter;rounded=0;shadow=0;glass=0;sketch=0;fontSize=15;fillColor=none;" vertex="1" parent="DRZjtDO21QbI87yVFXPy-7">
          <mxGeometry x="59" y="171" width="10" height="73" as="geometry" />
        </mxCell>
        <mxCell id="DRZjtDO21QbI87yVFXPy-2" value="" style="shape=umlLifeline;participant=umlActor;perimeter=lifelinePerimeter;whiteSpace=wrap;html=1;container=1;collapsible=0;recursiveResize=0;verticalAlign=top;spacingTop=36;outlineConnect=0;fillColor=none;size=32;sketch=0;shadow=0;rounded=0;glass=0;" vertex="1" parent="1">
          <mxGeometry x="108" y="68" width="20" height="500" as="geometry" />
        </mxCell>
        <mxCell id="DRZjtDO21QbI87yVFXPy-3" value="&lt;span style=&quot;color: rgb(0, 0, 0); font-family: Helvetica; font-size: 12px; font-style: normal; font-variant-ligatures: normal; font-variant-caps: normal; font-weight: 400; letter-spacing: normal; orphans: 2; text-align: center; text-indent: 0px; text-transform: none; widows: 2; word-spacing: 0px; -webkit-text-stroke-width: 0px; background-color: rgb(248, 249, 250); text-decoration-thickness: initial; text-decoration-style: initial; text-decoration-color: initial; float: none; display: inline !important;&quot;&gt;Administrateur&lt;/span&gt;" style="text;whiteSpace=wrap;html=1;" vertex="1" parent="1">
          <mxGeometry x="72" y="91" width="105" height="36" as="geometry" />
        </mxCell>
        <mxCell id="DRZjtDO21QbI87yVFXPy-8" value=":TimeAndMaterial&lt;br&gt;Service" style="shape=umlLifeline;perimeter=lifelinePerimeter;whiteSpace=wrap;html=1;container=1;collapsible=0;recursiveResize=0;outlineConnect=0;rounded=0;shadow=0;glass=0;sketch=0;fillColor=none;fontSize=15;fontColor=#CC6600;strokeColor=#CC6600;" vertex="1" parent="1">
          <mxGeometry x="599" y="68" width="130" height="500" as="geometry" />
        </mxCell>
        <mxCell id="DRZjtDO21QbI87yVFXPy-27" value="" style="html=1;points=[];perimeter=orthogonalPerimeter;rounded=0;shadow=0;glass=0;sketch=0;fontSize=15;fillColor=none;" vertex="1" parent="DRZjtDO21QbI87yVFXPy-8">
          <mxGeometry x="59" y="180" width="10" height="52" as="geometry" />
        </mxCell>
        <mxCell id="DRZjtDO21QbI87yVFXPy-10" value="" style="shape=umlLifeline;participant=umlEntity;perimeter=lifelinePerimeter;whiteSpace=wrap;html=1;container=1;collapsible=0;recursiveResize=0;verticalAlign=top;spacingTop=36;outlineConnect=0;rounded=0;shadow=0;glass=0;sketch=0;fontSize=15;fillColor=none;fontColor=#CC6600;strokeColor=#CC6600;" vertex="1" parent="1">
          <mxGeometry x="779" y="68" width="65" height="500" as="geometry" />
        </mxCell>
        <mxCell id="DRZjtDO21QbI87yVFXPy-29" value="" style="html=1;points=[];perimeter=orthogonalPerimeter;rounded=0;shadow=0;glass=0;sketch=0;fontSize=15;fillColor=none;" vertex="1" parent="DRZjtDO21QbI87yVFXPy-10">
          <mxGeometry x="27" y="188" width="10" height="38" as="geometry" />
        </mxCell>
        <mxCell id="DRZjtDO21QbI87yVFXPy-12" value="" style="shape=umlLifeline;participant=umlBoundary;perimeter=lifelinePerimeter;whiteSpace=wrap;html=1;container=1;collapsible=0;recursiveResize=0;verticalAlign=top;spacingTop=36;outlineConnect=0;rounded=0;shadow=0;glass=0;sketch=0;fontSize=15;fillColor=none;fontColor=#CC6600;strokeColor=#CC6600;" vertex="1" parent="1">
          <mxGeometry x="264" y="68" width="65" height="500" as="geometry" />
        </mxCell>
        <mxCell id="DRZjtDO21QbI87yVFXPy-13" value="&lt;span style=&quot;font-family: Helvetica; font-size: 15px; font-style: normal; font-variant-ligatures: normal; font-variant-caps: normal; font-weight: 400; letter-spacing: normal; orphans: 2; text-indent: 0px; text-transform: none; widows: 2; word-spacing: 0px; -webkit-text-stroke-width: 0px; background-color: rgb(248, 249, 250); text-decoration-thickness: initial; text-decoration-style: initial; text-decoration-color: initial; float: none; display: inline !important;&quot;&gt;Interface IHM&lt;/span&gt;&lt;br style=&quot;font-family: Helvetica; font-size: 15px; font-style: normal; font-variant-ligatures: normal; font-variant-caps: normal; font-weight: 400; letter-spacing: normal; orphans: 2; text-indent: 0px; text-transform: none; widows: 2; word-spacing: 0px; -webkit-text-stroke-width: 0px; background-color: rgb(248, 249, 250); text-decoration-thickness: initial; text-decoration-style: initial; text-decoration-color: initial;&quot;&gt;&lt;span style=&quot;font-family: Helvetica; font-size: 15px; font-style: normal; font-variant-ligatures: normal; font-variant-caps: normal; font-weight: 400; letter-spacing: normal; orphans: 2; text-indent: 0px; text-transform: none; widows: 2; word-spacing: 0px; -webkit-text-stroke-width: 0px; background-color: rgb(248, 249, 250); text-decoration-thickness: initial; text-decoration-style: initial; text-decoration-color: initial; float: none; display: inline !important;&quot;&gt;TempsEtMateriel&lt;/span&gt;" style="text;whiteSpace=wrap;html=1;fontSize=15;align=center;fillColor=default;fontColor=#CC6600;" vertex="1" parent="DRZjtDO21QbI87yVFXPy-12">
          <mxGeometry x="-32" y="44" width="122" height="45" as="geometry" />
        </mxCell>
        <mxCell id="DRZjtDO21QbI87yVFXPy-21" value="" style="html=1;points=[];perimeter=orthogonalPerimeter;rounded=0;shadow=0;glass=0;sketch=0;fontSize=15;fillColor=none;" vertex="1" parent="DRZjtDO21QbI87yVFXPy-12">
          <mxGeometry x="38" y="163" width="10" height="315" as="geometry" />
        </mxCell>
        <mxCell id="DRZjtDO21QbI87yVFXPy-53" value="setLeader(employee)" style="edgeStyle=orthogonalEdgeStyle;html=1;align=left;spacingLeft=2;endArrow=block;rounded=0;entryX=1;entryY=0;fontSize=15;" edge="1" parent="DRZjtDO21QbI87yVFXPy-12" source="DRZjtDO21QbI87yVFXPy-21">
          <mxGeometry relative="1" as="geometry">
            <mxPoint x="35" y="366" as="sourcePoint" />
            <Array as="points">
              <mxPoint x="65" y="371" />
              <mxPoint x="65" y="397" />
            </Array>
            <mxPoint x="48" y="397" as="targetPoint" />
          </mxGeometry>
        </mxCell>
        <mxCell id="DRZjtDO21QbI87yVFXPy-14" value=":Employee&lt;br&gt;Controler" style="shape=umlLifeline;perimeter=lifelinePerimeter;whiteSpace=wrap;html=1;container=1;collapsible=0;recursiveResize=0;outlineConnect=0;rounded=0;shadow=0;glass=0;sketch=0;fillColor=none;fontSize=15;strokeColor=#0000CC;fontColor=#0000CC;" vertex="1" parent="1">
          <mxGeometry x="922" y="68" width="130" height="500" as="geometry" />
        </mxCell>
        <mxCell id="DRZjtDO21QbI87yVFXPy-41" value="" style="html=1;points=[];perimeter=orthogonalPerimeter;rounded=0;shadow=0;glass=0;sketch=0;fontSize=15;fillColor=none;" vertex="1" parent="DRZjtDO21QbI87yVFXPy-14">
          <mxGeometry x="59" y="283" width="10" height="86" as="geometry" />
        </mxCell>
        <mxCell id="DRZjtDO21QbI87yVFXPy-16" value="" style="shape=umlLifeline;participant=umlEntity;perimeter=lifelinePerimeter;whiteSpace=wrap;html=1;container=1;collapsible=0;recursiveResize=0;verticalAlign=top;spacingTop=36;outlineConnect=0;rounded=0;shadow=0;glass=0;sketch=0;fontSize=15;fillColor=none;strokeColor=#0000CC;" vertex="1" parent="1">
          <mxGeometry x="1285" y="68" width="65" height="500" as="geometry" />
        </mxCell>
        <mxCell id="DRZjtDO21QbI87yVFXPy-17" value="Base de donnÃ©e&lt;br&gt;Personnel" style="text;whiteSpace=wrap;html=1;fontSize=15;align=center;fillColor=default;fontColor=#0000CC;" vertex="1" parent="DRZjtDO21QbI87yVFXPy-16">
          <mxGeometry x="-33" y="46" width="127" height="48" as="geometry" />
        </mxCell>
        <mxCell id="DRZjtDO21QbI87yVFXPy-46" value="" style="html=1;points=[];perimeter=orthogonalPerimeter;rounded=0;shadow=0;glass=0;sketch=0;fontSize=15;fillColor=none;" vertex="1" parent="DRZjtDO21QbI87yVFXPy-16">
          <mxGeometry x="27" y="292" width="10" height="55" as="geometry" />
        </mxCell>
        <mxCell id="DRZjtDO21QbI87yVFXPy-15" value=":Employee&lt;br&gt;Service" style="shape=umlLifeline;perimeter=lifelinePerimeter;whiteSpace=wrap;html=1;container=1;collapsible=0;recursiveResize=0;outlineConnect=0;rounded=0;shadow=0;glass=0;sketch=0;fillColor=none;fontSize=15;strokeColor=#0000CC;fontColor=#0000CC;" vertex="1" parent="1">
          <mxGeometry x="1099" y="68" width="130" height="500" as="geometry" />
        </mxCell>
        <mxCell id="DRZjtDO21QbI87yVFXPy-43" value="" style="html=1;points=[];perimeter=orthogonalPerimeter;rounded=0;shadow=0;glass=0;sketch=0;fontSize=15;fillColor=none;" vertex="1" parent="DRZjtDO21QbI87yVFXPy-15">
          <mxGeometry x="59" y="286" width="10" height="70" as="geometry" />
        </mxCell>
        <mxCell id="DRZjtDO21QbI87yVFXPy-18" value="" style="edgeStyle=elbowEdgeStyle;fontSize=12;html=1;endArrow=blockThin;endFill=1;rounded=0;" edge="1" parent="1" source="DRZjtDO21QbI87yVFXPy-2" target="DRZjtDO21QbI87yVFXPy-21">
          <mxGeometry width="160" relative="1" as="geometry">
            <mxPoint x="628" y="319" as="sourcePoint" />
            <mxPoint x="788" y="319" as="targetPoint" />
            <Array as="points">
              <mxPoint x="190" y="237" />
              <mxPoint x="171" y="210" />
            </Array>
          </mxGeometry>
        </mxCell>
        <mxCell id="DRZjtDO21QbI87yVFXPy-19" value="demander list projet" style="edgeLabel;html=1;align=center;verticalAlign=middle;resizable=0;points=[];fontSize=15;" vertex="1" connectable="0" parent="DRZjtDO21QbI87yVFXPy-18">
          <mxGeometry x="-0.3952" relative="1" as="geometry">
            <mxPoint x="30" y="-12" as="offset" />
          </mxGeometry>
        </mxCell>
        <mxCell id="DRZjtDO21QbI87yVFXPy-23" value="" style="edgeStyle=elbowEdgeStyle;fontSize=12;html=1;endArrow=blockThin;endFill=1;rounded=0;" edge="1" parent="1" source="DRZjtDO21QbI87yVFXPy-21" target="DRZjtDO21QbI87yVFXPy-24">
          <mxGeometry width="160" relative="1" as="geometry">
            <mxPoint x="477" y="392" as="sourcePoint" />
            <mxPoint x="637" y="392" as="targetPoint" />
            <Array as="points">
              <mxPoint x="337" y="246" />
              <mxPoint x="426" y="253" />
            </Array>
          </mxGeometry>
        </mxCell>
        <mxCell id="DRZjtDO21QbI87yVFXPy-25" value="query()" style="edgeLabel;html=1;align=center;verticalAlign=middle;resizable=0;points=[];fontSize=15;" vertex="1" connectable="0" parent="DRZjtDO21QbI87yVFXPy-23">
          <mxGeometry x="-0.2194" y="3" relative="1" as="geometry">
            <mxPoint x="13" y="-9" as="offset" />
          </mxGeometry>
        </mxCell>
        <mxCell id="DRZjtDO21QbI87yVFXPy-26" value="" style="edgeStyle=elbowEdgeStyle;fontSize=12;html=1;endArrow=blockThin;endFill=1;rounded=0;" edge="1" parent="1" source="DRZjtDO21QbI87yVFXPy-24" target="DRZjtDO21QbI87yVFXPy-27">
          <mxGeometry width="160" relative="1" as="geometry">
            <mxPoint x="394" y="304" as="sourcePoint" />
            <mxPoint x="554" y="304" as="targetPoint" />
            <Array as="points">
              <mxPoint x="568" y="253" />
              <mxPoint x="527" y="271" />
            </Array>
          </mxGeometry>
        </mxCell>
        <mxCell id="DRZjtDO21QbI87yVFXPy-28" value="findAll()" style="edgeLabel;html=1;align=center;verticalAlign=middle;resizable=0;points=[];fontSize=15;" vertex="1" connectable="0" parent="DRZjtDO21QbI87yVFXPy-26">
          <mxGeometry x="0.1239" relative="1" as="geometry">
            <mxPoint x="-14" y="-11" as="offset" />
          </mxGeometry>
        </mxCell>
        <mxCell id="DRZjtDO21QbI87yVFXPy-30" value="" style="edgeStyle=elbowEdgeStyle;fontSize=12;html=1;endArrow=blockThin;endFill=1;rounded=0;" edge="1" parent="1" source="DRZjtDO21QbI87yVFXPy-27" target="DRZjtDO21QbI87yVFXPy-29">
          <mxGeometry width="160" relative="1" as="geometry">
            <mxPoint x="474" y="304" as="sourcePoint" />
            <mxPoint x="634" y="304" as="targetPoint" />
            <Array as="points">
              <mxPoint x="718" y="260" />
              <mxPoint x="766" y="267" />
            </Array>
          </mxGeometry>
        </mxCell>
        <mxCell id="DRZjtDO21QbI87yVFXPy-31" value="findAll()" style="edgeLabel;html=1;align=center;verticalAlign=middle;resizable=0;points=[];fontSize=15;" vertex="1" connectable="0" parent="DRZjtDO21QbI87yVFXPy-30">
          <mxGeometry x="-0.3561" y="2" relative="1" as="geometry">
            <mxPoint x="23" y="-9" as="offset" />
          </mxGeometry>
        </mxCell>
        <mxCell id="DRZjtDO21QbI87yVFXPy-32" value="liste Projets" style="html=1;verticalAlign=bottom;endArrow=open;dashed=1;endSize=8;rounded=0;fontSize=15;" edge="1" parent="1">
          <mxGeometry relative="1" as="geometry">
            <mxPoint x="806" y="291" as="sourcePoint" />
            <mxPoint x="668" y="291" as="targetPoint" />
          </mxGeometry>
        </mxCell>
        <mxCell id="DRZjtDO21QbI87yVFXPy-33" value="liste Projets" style="html=1;verticalAlign=bottom;endArrow=open;dashed=1;endSize=8;rounded=0;fontSize=15;" edge="1" parent="1">
          <mxGeometry relative="1" as="geometry">
            <mxPoint x="658" y="296" as="sourcePoint" />
            <mxPoint x="477" y="296" as="targetPoint" />
            <Array as="points">
              <mxPoint x="625" y="296" />
            </Array>
          </mxGeometry>
        </mxCell>
        <mxCell id="DRZjtDO21QbI87yVFXPy-34" value="liste Projets" style="html=1;verticalAlign=bottom;endArrow=open;dashed=1;endSize=8;rounded=0;fontSize=15;" edge="1" parent="1" source="DRZjtDO21QbI87yVFXPy-24" target="DRZjtDO21QbI87yVFXPy-21">
          <mxGeometry relative="1" as="geometry">
            <mxPoint x="479" y="308" as="sourcePoint" />
            <mxPoint x="298" y="308" as="targetPoint" />
            <Array as="points">
              <mxPoint x="446" y="308" />
            </Array>
          </mxGeometry>
        </mxCell>
        <mxCell id="DRZjtDO21QbI87yVFXPy-38" value="" style="edgeStyle=elbowEdgeStyle;fontSize=12;html=1;endArrow=blockThin;endFill=1;rounded=0;" edge="1" parent="1" source="DRZjtDO21QbI87yVFXPy-21" target="DRZjtDO21QbI87yVFXPy-41">
          <mxGeometry width="160" relative="1" as="geometry">
            <mxPoint x="312" y="359" as="sourcePoint" />
            <mxPoint x="985.5000000000005" y="359" as="targetPoint" />
            <Array as="points">
              <mxPoint x="873" y="359" />
            </Array>
          </mxGeometry>
        </mxCell>
        <mxCell id="DRZjtDO21QbI87yVFXPy-39" value="loadLeader(id)" style="edgeLabel;html=1;align=center;verticalAlign=middle;resizable=0;points=[];fontSize=15;" vertex="1" connectable="0" parent="DRZjtDO21QbI87yVFXPy-38">
          <mxGeometry x="-0.2561" y="-3" relative="1" as="geometry">
            <mxPoint x="45" y="-15" as="offset" />
          </mxGeometry>
        </mxCell>
        <mxCell id="DRZjtDO21QbI87yVFXPy-42" value="" style="edgeStyle=elbowEdgeStyle;fontSize=12;html=1;endArrow=blockThin;endFill=1;rounded=0;" edge="1" parent="1" source="DRZjtDO21QbI87yVFXPy-41" target="DRZjtDO21QbI87yVFXPy-43">
          <mxGeometry width="160" relative="1" as="geometry">
            <mxPoint x="917" y="338" as="sourcePoint" />
            <mxPoint x="1077" y="338" as="targetPoint" />
            <Array as="points">
              <mxPoint x="1099" y="370" />
            </Array>
          </mxGeometry>
        </mxCell>
        <mxCell id="DRZjtDO21QbI87yVFXPy-45" value="getEmployee(id)" style="edgeLabel;html=1;align=center;verticalAlign=middle;resizable=0;points=[];fontSize=15;" vertex="1" connectable="0" parent="DRZjtDO21QbI87yVFXPy-42">
          <mxGeometry x="-0.2535" y="1" relative="1" as="geometry">
            <mxPoint x="20" y="-11" as="offset" />
          </mxGeometry>
        </mxCell>
        <mxCell id="DRZjtDO21QbI87yVFXPy-47" value="" style="edgeStyle=elbowEdgeStyle;fontSize=12;html=1;endArrow=blockThin;endFill=1;rounded=0;" edge="1" parent="1" source="DRZjtDO21QbI87yVFXPy-43" target="DRZjtDO21QbI87yVFXPy-46">
          <mxGeometry width="160" relative="1" as="geometry">
            <mxPoint x="1065" y="345" as="sourcePoint" />
            <mxPoint x="1225" y="345" as="targetPoint" />
            <Array as="points">
              <mxPoint x="1264" y="386" />
            </Array>
          </mxGeometry>
        </mxCell>
        <mxCell id="DRZjtDO21QbI87yVFXPy-48" value="findById(id)" style="edgeLabel;html=1;align=center;verticalAlign=middle;resizable=0;points=[];fontSize=15;" vertex="1" connectable="0" parent="DRZjtDO21QbI87yVFXPy-47">
          <mxGeometry x="-0.2685" y="1" relative="1" as="geometry">
            <mxPoint x="15" y="-11" as="offset" />
          </mxGeometry>
        </mxCell>
        <mxCell id="DRZjtDO21QbI87yVFXPy-49" value="employee" style="html=1;verticalAlign=bottom;endArrow=open;dashed=1;endSize=8;rounded=0;fontSize=15;" edge="1" parent="1" source="DRZjtDO21QbI87yVFXPy-46" target="DRZjtDO21QbI87yVFXPy-43">
          <mxGeometry relative="1" as="geometry">
            <mxPoint x="1047" y="340" as="sourcePoint" />
            <mxPoint x="967" y="340" as="targetPoint" />
            <Array as="points">
              <mxPoint x="1260" y="411" />
            </Array>
          </mxGeometry>
        </mxCell>
        <mxCell id="DRZjtDO21QbI87yVFXPy-50" value="employee" style="html=1;verticalAlign=bottom;endArrow=open;dashed=1;endSize=8;rounded=0;fontSize=15;" edge="1" parent="1">
          <mxGeometry relative="1" as="geometry">
            <mxPoint x="1158" y="420" as="sourcePoint" />
            <mxPoint x="991" y="420" as="targetPoint" />
            <Array as="points">
              <mxPoint x="1098" y="420" />
            </Array>
          </mxGeometry>
        </mxCell>
        <mxCell id="DRZjtDO21QbI87yVFXPy-51" value="employee" style="html=1;verticalAlign=bottom;endArrow=open;dashed=1;endSize=8;rounded=0;fontSize=15;startArrow=none;" edge="1" parent="1" source="DRZjtDO21QbI87yVFXPy-41" target="DRZjtDO21QbI87yVFXPy-21">
          <mxGeometry x="0.1211" y="-4" relative="1" as="geometry">
            <mxPoint x="981" y="429.9999999999998" as="sourcePoint" />
            <mxPoint x="312" y="345.5090909090909" as="targetPoint" />
            <Array as="points">
              <mxPoint x="964" y="431" />
            </Array>
            <mxPoint as="offset" />
          </mxGeometry>
        </mxCell>
        <mxCell id="DRZjtDO21QbI87yVFXPy-54" value="liste Projets" style="html=1;verticalAlign=bottom;endArrow=open;dashed=1;endSize=8;rounded=0;fontSize=15;" edge="1" parent="1">
          <mxGeometry relative="1" as="geometry">
            <mxPoint x="302.0000000000001" y="510" as="sourcePoint" />
            <mxPoint x="118.07446808510633" y="510" as="targetPoint" />
            <Array as="points">
              <mxPoint x="221" y="510" />
            </Array>
          </mxGeometry>
        </mxCell>
        <mxCell id="DRZjtDO21QbI87yVFXPy-37" value="Loop: pour chaque &lt;br&gt;&lt;div style=&quot;text-align: center;&quot;&gt;&lt;span style=&quot;background-color: initial;&quot;&gt;projet&lt;/span&gt;&lt;/div&gt;" style="shape=umlFrame;whiteSpace=wrap;html=1;rounded=0;shadow=0;glass=0;sketch=0;fontSize=15;fillColor=none;width=140;height=38;align=left;" vertex="1" parent="1">
          <mxGeometry x="148.5" y="330" width="1185" height="154" as="geometry" />
        </mxCell>
        <mxCell id="DRZjtDO21QbI87yVFXPy-56" value="Diagramme&amp;nbsp; de sÃ©quence liste de projets TempsEtMateriel" style="shape=umlFrame;whiteSpace=wrap;html=1;rounded=0;shadow=0;glass=0;sketch=0;fontSize=15;fillColor=none;width=417;height=26;" vertex="1" parent="1">
          <mxGeometry x="59" y="27" width="1335.5" height="563" as="geometry" />
        </mxCell>
        <mxCell id="DRZjtDO21QbI87yVFXPy-11" value="&lt;span style=&quot;font-family: Helvetica; font-size: 15px; font-style: normal; font-variant-ligatures: normal; font-variant-caps: normal; font-weight: 400; letter-spacing: normal; orphans: 2; text-indent: 0px; text-transform: none; widows: 2; word-spacing: 0px; -webkit-text-stroke-width: 0px; background-color: rgb(248, 249, 250); text-decoration-thickness: initial; text-decoration-style: initial; text-decoration-color: initial; float: none; display: inline !important;&quot;&gt;Base de donnÃ©e&lt;br&gt;Livraison&lt;br&gt;&lt;/span&gt;" style="text;whiteSpace=wrap;html=1;fontSize=15;align=center;fillColor=default;fontColor=#CC6600;" vertex="1" parent="1">
          <mxGeometry x="751.5" y="116" width="119" height="48" as="geometry" />
        </mxCell>
      </root>
    </mxGraphModel>
  </diagram>
</mxfile>
